<svg xmlns="http://www.w3.org/2000/svg" width="509.001" height="464.741" viewBox="0 0 509.001 464.741">
  <g id="Group_8360" data-name="Group 8360" transform="translate(-274 -1009)">
    <g id="freepik--Floor--inject-39" transform="translate(274 1212.139)">
      <path id="freepik--floor--inject-39-2" data-name="freepik--floor--inject-39" d="M94.112,440c99.344,51.1,260.449,51.1,359.9,0s99.344-133.851,0-184.951-260.449-51.1-359.9,0S-5.232,388.9,94.112,440Z" transform="translate(-19.563 -216.725)" fill="#eff3f6"/>
    </g>
    <g id="freepik--Shadows--inject-39" transform="translate(476.026 1297.169)">
      <path id="freepik--Shadow--inject-39" d="M335.991,370.745l55.5-31.979a6.428,6.428,0,0,1,5.495-.22l56.6,32.639c1.538.659,1.648,1.978.11,2.857L397.2,406.571a5.112,5.112,0,0,1-5.165-.22l-56.046-32.2a1.837,1.837,0,0,1-.769-2.528C335.222,371.185,335.551,370.965,335.991,370.745Z" transform="translate(-190.382 -289.753)" fill="#d9dee2"/>
      <ellipse id="freepik--shadow--inject-39-2" data-name="freepik--shadow--inject-39" cx="56.595" cy="26.924" rx="56.595" ry="26.924" fill="#d9dee2"/>
    </g>
    <g id="freepik--Plants--inject-39" transform="translate(334.813 1284.623)">
      <g id="freepik--plants--inject-39_2_">
        <g id="freepik--plants--inject-39-2" data-name="freepik--plants--inject-39" transform="translate(392.321 46.296)">
          <path id="Path_4" data-name="Path 4" d="M432.8,357c.11-5.165,4.066-15.825,9.561-22.418s14.066-11.429,20-9.231c5.6,1.978,4.835,9.341-2.088,14.066s-17.143,10.66-20.33,19.012l-6.484,10.22Z" transform="translate(-431.811 -324.811)" fill="#40afff"/>
          <path id="Path_5" data-name="Path 5" d="M432.8,357c.11-5.165,4.066-15.825,9.561-22.418s14.066-11.429,20-9.231c5.6,1.978,4.835,9.341-2.088,14.066s-17.143,10.66-20.33,19.012l-6.484,10.22Z" transform="translate(-431.811 -324.811)" fill="#18b24b"/>
          <path id="Path_6" data-name="Path 6" d="M432.34,363.719a.291.291,0,0,0,.33-.33c3.736-17.583,18.352-31.759,26.924-34.727.22-.11.33-.33.22-.44-.11-.22-.33-.33-.44-.22h0c-8.792,3.077-23.627,17.473-27.473,35.276a.473.473,0,0,0,.44.44Z" transform="translate(-431.9 -324.499)" fill="#fff"/>
          <path id="Path_7" data-name="Path 7" d="M434.6,373.361c.879-2.857,4.506-7.693,10.33-11.539,6.484-4.286,14.506-6.154,16.484-9.561,2.308-4.066-1.1-8.022-7.693-7.253s-18.133,9.451-20.22,22.748Z" transform="translate(-431.742 -322.822)" fill="#50d15f"/>
          <path id="Path_8" data-name="Path 8" d="M433.543,369.959c.11,0,.33-.11.33-.22,5.715-15.055,17.363-20.111,22.638-20.77.22,0,.33-.22.33-.44s-.22-.33-.44-.33h0c-5.934.659-17.473,5.934-23.3,21.21-.11.22,0,.44.22.44.11.11.11.11.22.11Z" transform="translate(-431.785 -322.497)" fill="#fff"/>
        </g>
        <g id="freepik--plants--inject-39_1_">
          <path id="Path_9" data-name="Path 9" d="M105.029,344.572l6.484-3.736s3.077-17.143.769-31.979c-3.3-20.77-17.473-27.913-22.528-25.825s-6.374,8.242,2.967,20.22C98.216,310.395,105.249,325.34,105.029,344.572Z" transform="translate(-73.819 -282.683)" fill="#40afff"/>
          <g id="Group_14" data-name="Group 14" transform="translate(12.002)">
            <path id="Path_10" data-name="Path 10" d="M105.029,344.572l6.484-3.736s3.077-17.143.769-31.979c-3.3-20.77-17.473-27.913-22.528-25.825s-6.374,8.242,2.967,20.22C98.216,310.395,105.249,325.34,105.029,344.572Z" transform="translate(-85.821 -282.683)" fill="#18b24b"/>
          </g>
          <path id="Path_11" data-name="Path 11" d="M106.811,336.066h0c-.33,0-.44-.22-.44-.549,2.637-19.451-5.165-40.771-13.957-49.342a.466.466,0,1,1,.659-.659c8.9,8.792,16.924,30.441,14.176,50.112A.4.4,0,0,1,106.811,336.066Z" transform="translate(-73.183 -282.419)" fill="#fff"/>
          <path id="Path_12" data-name="Path 12" d="M88.087,353.4c-.989.549-3.187-.659-3.956-1.209a9.808,9.808,0,0,1-3.3-3.736,8.69,8.69,0,0,1-.769-5.495A28.728,28.728,0,0,1,80.724,340c.22-.989.549-1.868.769-2.857a8.194,8.194,0,0,0,.44-2.857c-.22-1.978-1.978-3.3-3.517-4.506S74.9,326.7,74.9,324.391a8.338,8.338,0,0,1,2.088-4.945c1.1-1.429,2.418-2.637,3.517-4.176a6.244,6.244,0,0,0,1.209-3.626,6.359,6.359,0,0,0-.769-2.308,36.289,36.289,0,0,1-2.528-4.506,4.568,4.568,0,0,1,.769-4.835,5.309,5.309,0,0,1,4.066-.989,7.661,7.661,0,0,1,3.736,1.319c3.736,2.088,5.824,6.484,9.781,8.022,1.539.44,3.187.879,4.725,1.209a6.016,6.016,0,0,1,3.956,2.747c1.429,2.857-1.209,6.484-.22,9.561.879,2.747,3.517,3.736,5.055,6.154a5.642,5.642,0,0,1,.659,3.517,16.364,16.364,0,0,1-1.539,6.044,44.025,44.025,0,0,1-3.3,5.385C106.11,343.073,88.307,353.294,88.087,353.4Z" transform="translate(-74.9 -281.075)" fill="#50d15f"/>
          <path id="Path_13" data-name="Path 13" d="M97.831,347.531h0a.473.473,0,0,1-.44-.44h0c.769-18.462-7.912-38.683-14.176-44.617a.412.412,0,0,1,0-.659h0a.412.412,0,0,1,.659,0c6.374,5.934,15.275,26.594,14.506,45.276A.73.73,0,0,1,97.831,347.531Z" transform="translate(-74.094 -280.807)" fill="#fff"/>
          <path id="Path_14" data-name="Path 14" d="M95.257,323.877h-.11a61.014,61.014,0,0,0-13.407-2.2.44.44,0,1,1,0-.879h0A64.08,64.08,0,0,1,95.366,323a.6.6,0,0,1,.33.549h0C95.586,323.767,95.476,323.877,95.257,323.877Z" transform="translate(-74.267 -278.912)" fill="#fff"/>
        </g>
      </g>
    </g>
    <g id="freepik--Board--inject-39" transform="translate(304.812 1009)">
      <path id="Path_15" data-name="Path 15" d="M161.315,280.037V277.4L114.5,304.544l2.2,1.319Z" transform="translate(-40.981 -7.583)" fill="#37474f"/>
      <path id="Path_16" data-name="Path 16" d="M107.977,117.571a.783.783,0,0,1,.33.659L69.4,290.654l-1.1,4.945a3.511,3.511,0,0,1-1.539-.33h0l-2.637-1.539a.783.783,0,0,1-.33-.659l39.891-176.929a.625.625,0,0,1,.769-.44c.11,0,.11,0,.22.11Z" transform="translate(-45.997 -23.584)" fill="#37474f"/>
      <path id="Path_17" data-name="Path 17" d="M112.407,115.2,72.3,293.008a1.009,1.009,0,0,1-.44.659l-2.637,1.539a2.926,2.926,0,0,1-1.319.33l1.1-4.945,38.9-172.863Z" transform="translate(-45.592 -23.631)" fill="#455a64"/>
      <path id="Path_18" data-name="Path 18" d="M112.8,346.973v5.165a3.043,3.043,0,0,1-1.429-.33h0l-2.418-1.429a.87.87,0,0,1-.549-.879V195.1l4.506,2.637Z" transform="translate(-41.585 -15.726)" fill="#37474f"/>
      <path id="Path_19" data-name="Path 19" d="M116.9,195.1V349.5a1.028,1.028,0,0,1-.549.769l-2.418,1.429a3.384,3.384,0,0,1-1.429.33V197.737Z" transform="translate(-41.179 -15.726)" fill="#455a64"/>
      <path id="Path_20" data-name="Path 20" d="M168.01,320.253a2.417,2.417,0,0,1-1.429-.44l-2.528-1.429a1.709,1.709,0,0,1-.659-.879L136.8,178.6l4.506,2.637,25.715,134.071Z" transform="translate(-38.775 -17.358)" fill="#37474f"/>
      <path id="Path_21" data-name="Path 21" d="M172.01,317.706h0c0,.33-.33.659-.659.879l-2.308,1.319-.11.11a3.383,3.383,0,0,1-1.429.33l-.989-4.945L140.8,181.328l4.506-2.528,26.7,138.686h0Z" transform="translate(-38.379 -17.338)" fill="#455a64"/>
      <path id="Path_22" data-name="Path 22" d="M115.1,311.787l50.661-29.232V277.5L115.1,306.622Z" transform="translate(-40.922 -7.573)" fill="#455a64"/>
      <path id="Path_23" data-name="Path 23" d="M51.5,245.937V247.8a3.046,3.046,0,0,0,1.429,2.528l15.055,8.682a3.26,3.26,0,0,0,2.857,0l126.6-73.079a3.164,3.164,0,0,0,1.429-2.528v-1.868a3.2,3.2,0,0,0-1.429-2.528l-14.946-8.682a3.26,3.26,0,0,0-2.857,0L52.929,243.409A3.7,3.7,0,0,0,51.5,245.937Z" transform="translate(-47.214 -18.209)" fill="#2654b2"/>
      <path id="Path_24" data-name="Path 24" d="M52.852,245.058l15.055,8.682a3.26,3.26,0,0,0,2.857,0l126.6-73.079a.907.907,0,0,0,.549-1.1,1.324,1.324,0,0,0-.549-.549l-14.946-8.682a3.26,3.26,0,0,0-2.857,0L52.852,243.409A.877.877,0,0,0,52.852,245.058Z" transform="translate(-47.137 -18.209)" fill="#fff" opacity="0.4"/>
      <path id="Path_25" data-name="Path 25" d="M69.413,247.45v5.165a3.384,3.384,0,0,1-1.429-.33L52.929,243.6a3.164,3.164,0,0,1-1.429-2.528v-1.868a3.285,3.285,0,0,1,1.1-2.308c-.549.44-.44,1.1.33,1.429l15.055,8.682A2.027,2.027,0,0,0,69.413,247.45Z" transform="translate(-47.214 -11.59)" opacity="0.1"/>
      <path id="Path_26" data-name="Path 26" d="M62.875,264.308,58.7,261.891a5.6,5.6,0,0,1-2.528-4.066L47.6,108.7a4.693,4.693,0,0,1,2.2-4.066l124.73-71.98a5.125,5.125,0,0,1,4.725,0l4.176,2.418a5.6,5.6,0,0,1,2.528,4.066l8.572,149.126a4.693,4.693,0,0,1-2.2,4.066l-124.62,71.98A6.157,6.157,0,0,1,62.875,264.308Z" transform="translate(-47.6 -31.855)" fill="#e0e0e0"/>
      <path id="Path_27" data-name="Path 27" d="M185.907,38.606c-.22-1.209-1.319-1.648-2.528-.989L58.65,109.707A5.026,5.026,0,0,0,57,111.466L48.1,106.3a5.087,5.087,0,0,1,1.648-1.758l124.73-72.09a5.125,5.125,0,0,1,4.725,0l4.176,2.418A5.929,5.929,0,0,1,185.907,38.606Z" transform="translate(-47.551 -31.875)" fill="#fafafa"/>
      <path id="Path_28" data-name="Path 28" d="M55.7,113.276,64.272,262.4a1.6,1.6,0,0,0,1.319,1.758,2.215,2.215,0,0,0,1.209-.33l124.73-71.98a4.693,4.693,0,0,0,2.2-4.066L185.155,38.658a1.6,1.6,0,0,0-1.319-1.758,2.215,2.215,0,0,0-1.209.33L57.9,109.21A4.953,4.953,0,0,0,55.7,113.276Z" transform="translate(-46.799 -31.378)" fill="#f0f0f0"/>
      <path id="Path_29" data-name="Path 29" d="M147.321,56.712v8.022a2.421,2.421,0,0,1-.989,1.758L94.792,96.273a2.1,2.1,0,0,1-1.978,0l-2.528-1.539a2.081,2.081,0,0,1-.989-1.758V89.02l-8.9-5.165L76,86.383V77.262a2.421,2.421,0,0,1,.989-1.758l51.54-29.781a2.1,2.1,0,0,1,1.978,0l15.715,9.121A2.611,2.611,0,0,1,147.321,56.712Z" transform="translate(-44.79 -30.529)" fill="#263238"/>
      <path id="Path_30" data-name="Path 30" d="M145.718,55.839v8.022a2.421,2.421,0,0,1-.989,1.758L93.189,95.4a3.209,3.209,0,0,1-.989.22V85.29a3.209,3.209,0,0,0,.989-.22l51.54-29.781c.44-.33.549-.769.22-.989A1.923,1.923,0,0,1,145.718,55.839Z" transform="translate(-43.187 -29.656)" fill="#37474f"/>
      <path id="Path_31" data-name="Path 31" d="M76.842,76.693l15.825,9.121a2.1,2.1,0,0,0,1.978,0L146.3,56.142a.568.568,0,0,0,.33-.769q-.165-.33-.33-.33L130.47,45.922a2.1,2.1,0,0,0-1.978,0L76.842,75.594a.625.625,0,0,0-.44.769C76.512,76.583,76.622,76.693,76.842,76.693Z" transform="translate(-44.753 -30.51)" fill="#455a64"/>
      <path id="Path_32" data-name="Path 32" d="M69.6,135.533c.659,10.66,8.682,14.836,18.132,9.451s16.484-18.462,15.935-29.122-8.682-14.836-18.132-9.451S68.944,124.874,69.6,135.533Z" transform="translate(-45.427 -24.733)" fill="#ed5f18"/>
      <path id="Path_33" data-name="Path 33" d="M96.088,104.98,85.1,125.75,84,106.518C88.616,103.881,92.792,103.441,96.088,104.98Z" transform="translate(-43.999 -24.73)" opacity="0.1"/>
      <path id="Path_34" data-name="Path 34" d="M99.4,129.077,85,125.67,95.989,104.9c3.517,1.648,5.824,5.385,6.154,10.88A30.711,30.711,0,0,1,99.4,129.077Z" transform="translate(-43.9 -24.65)" opacity="0.2"/>
      <path id="Path_35" data-name="Path 35" d="M108.2,106.445l.11,1.648a.9.9,0,0,0,.879.989.807.807,0,0,0,.659-.22l57.694-33.3a2.814,2.814,0,0,0,1.319-2.528l-.11-1.648a.822.822,0,0,0-.769-.989c-.22,0-.549,0-.659.22l-57.8,33.408A3.02,3.02,0,0,0,108.2,106.445Z" transform="translate(-41.604 -28.063)" fill="#37474f"/>
      <path id="Path_36" data-name="Path 36" d="M112.736,112.064l.22,2.747a1.938,1.938,0,0,1-.879,1.648l-1.978,1.1a.581.581,0,0,1-.879-.11c-.11-.11-.22-.33-.11-.44l-.11-2.747a1.938,1.938,0,0,1,.879-1.648l1.978-1.1a.669.669,0,0,1,.879,0Z" transform="translate(-41.525 -24.012)" fill="#e52557"/>
      <path id="Path_37" data-name="Path 37" d="M167.381,86.963l-49.232,28.353a1,1,0,0,1-1.319-.11,1.562,1.562,0,0,1-.22-.659l-.11-1.648a3.226,3.226,0,0,1,1.319-2.528l49.232-28.353a1,1,0,0,1,1.319.11,1.562,1.562,0,0,1,.22.659l.11,1.758A2.891,2.891,0,0,1,167.381,86.963Z" transform="translate(-40.783 -26.934)" fill="#455a64"/>
      <path id="Path_38" data-name="Path 38" d="M113.246,123.363l.11,2.747a1.938,1.938,0,0,1-.879,1.648l-1.978,1.1a.581.581,0,0,1-.879-.11c-.11-.11-.22-.33-.11-.44l-.11-2.747a1.938,1.938,0,0,1,.879-1.648l1.978-1.1a.581.581,0,0,1,.879.11C113.136,123.143,113.246,123.253,113.246,123.363Z" transform="translate(-41.486 -22.893)" fill="#e52557"/>
      <path id="Path_39" data-name="Path 39" d="M113.246,123.363l.11,2.747a1.938,1.938,0,0,1-.879,1.648l-1.978,1.1a.581.581,0,0,1-.879-.11c-.11-.11-.22-.33-.11-.44l-.11-2.747a1.938,1.938,0,0,1,.879-1.648l1.978-1.1a.581.581,0,0,1,.879.11C113.136,123.143,113.246,123.253,113.246,123.363Z" transform="translate(-41.486 -22.893)" opacity="0.1"/>
      <path id="Path_40" data-name="Path 40" d="M167.881,98.363l-49.232,28.463a1,1,0,0,1-1.319-.11,1.562,1.562,0,0,1-.22-.659l-.11-1.648a3.226,3.226,0,0,1,1.319-2.528l49.232-28.463a1,1,0,0,1,1.319.11,1.562,1.562,0,0,1,.22.659l.11,1.758A2.651,2.651,0,0,1,167.881,98.363Z" transform="translate(-40.734 -25.806)" fill="#455a64"/>
      <path id="Path_41" data-name="Path 41" d="M113.736,134.863l.22,2.747a1.938,1.938,0,0,1-.879,1.648l-1.978,1.209a.581.581,0,0,1-.879-.11.661.661,0,0,1-.11-.44l-.11-2.747a1.938,1.938,0,0,1,.879-1.648l1.978-1.209a.581.581,0,0,1,.879.11Z" transform="translate(-41.426 -21.755)" fill="#e52557"/>
      <path id="Path_42" data-name="Path 42" d="M113.736,135.163l.22,2.747a1.938,1.938,0,0,1-.879,1.648l-1.978,1.209a.581.581,0,0,1-.879-.11.661.661,0,0,1-.11-.44l-.11-2.747a1.938,1.938,0,0,1,.879-1.648l1.978-1.209a.581.581,0,0,1,.879.11Z" transform="translate(-41.426 -21.725)" opacity="0.2"/>
      <path id="Path_43" data-name="Path 43" d="M168.381,109.873l-49.232,28.353a1,1,0,0,1-1.319-.11,1.562,1.562,0,0,1-.22-.659l-.11-1.648a3.226,3.226,0,0,1,1.319-2.528l49.232-28.463a1,1,0,0,1,1.319.11,1.562,1.562,0,0,1,.22.659l.11,1.648A3,3,0,0,1,168.381,109.873Z" transform="translate(-40.684 -24.678)" fill="#455a64"/>
      <path id="Path_44" data-name="Path 44" d="M76.219,155.668l23.847-13.847a.9.9,0,0,1,1.319.11,1.562,1.562,0,0,1,.22.659l.22,3.956a3.226,3.226,0,0,1-1.319,2.528L76.658,162.921a.9.9,0,0,1-1.319-.11,1.562,1.562,0,0,1-.22-.659L74.9,158.2A3.066,3.066,0,0,1,76.219,155.668Z" transform="translate(-44.899 -21.02)" fill="#37474f"/>
      <path id="Path_45" data-name="Path 45" d="M71.719,185.638l35.056-20.22a1,1,0,0,1,1.319.11,1.562,1.562,0,0,1,.22.659l.11,1.648a2.941,2.941,0,0,1-1.319,2.528l-35.056,20.22a1,1,0,0,1-1.319-.11,1.562,1.562,0,0,1-.22-.659l-.11-1.758A2.758,2.758,0,0,1,71.719,185.638Z" transform="translate(-45.344 -18.682)" fill="#455a64"/>
      <path id="Path_46" data-name="Path 46" d="M72.419,197.742l35.056-20.22a.9.9,0,0,1,1.319.11.807.807,0,0,1,.22.659l.11,1.758a2.941,2.941,0,0,1-1.319,2.528L72.748,202.8a1,1,0,0,1-1.319-.11,1.562,1.562,0,0,1-.22-.659l-.11-1.648A2.878,2.878,0,0,1,72.419,197.742Z" transform="translate(-45.275 -17.488)" fill="#455a64"/>
      <path id="Path_47" data-name="Path 47" d="M73.119,209.848l35.056-20.33a1,1,0,0,1,1.319.11,1.562,1.562,0,0,1,.22.659l.11,1.648a2.941,2.941,0,0,1-1.319,2.528l-35.056,20.22a1,1,0,0,1-1.319-.11,1.562,1.562,0,0,1-.22-.659l-.11-1.648A2.758,2.758,0,0,1,73.119,209.848Z" transform="translate(-45.206 -16.298)" fill="#455a64"/>
      <path id="Path_48" data-name="Path 48" d="M73.819,221.952l35.056-20.33a.9.9,0,0,1,1.319.11,1.562,1.562,0,0,1,.22.659l.11,1.758a3.226,3.226,0,0,1-1.319,2.528L74.148,226.9a.9.9,0,0,1-1.319-.11,1.562,1.562,0,0,1-.22-.659l-.11-1.648A3.066,3.066,0,0,1,73.819,221.952Z" transform="translate(-45.136 -15.104)" fill="#455a64"/>
      <path id="Path_49" data-name="Path 49" d="M115.919,165.575l5.055-2.857a1,1,0,0,1,1.319.11,1.562,1.562,0,0,1,.22.659l1.539,26.594a2.941,2.941,0,0,1-1.319,2.528l-5.055,2.857a.9.9,0,0,1-1.319-.11,1.562,1.562,0,0,1-.22-.659L114.6,168.1A2.941,2.941,0,0,1,115.919,165.575Z" transform="translate(-40.971 -18.949)" fill="#493dc1"/>
      <path id="Path_50" data-name="Path 50" d="M117.719,197.278l5.055-2.857c.769-.44,1.429-.22,1.539.44a2.715,2.715,0,0,1-1.319,2.088l-5.055,2.857c-.769.44-1.429.33-1.539-.44A2.715,2.715,0,0,1,117.719,197.278Z" transform="translate(-40.793 -15.816)" fill="#37474f"/>
      <path id="Path_51" data-name="Path 51" d="M132.219,168.078l5.055-2.857a.9.9,0,0,1,1.319.11,1.562,1.562,0,0,1,.22.659l.769,13.957a3.226,3.226,0,0,1-1.319,2.528l-5.055,2.857a.9.9,0,0,1-1.319-.11,1.562,1.562,0,0,1-.22-.659l-.769-13.957A3.066,3.066,0,0,1,132.219,168.078Z" transform="translate(-39.358 -18.705)" fill="#493dc1"/>
      <path id="Path_52" data-name="Path 52" d="M132.219,168.078l5.055-2.857a.9.9,0,0,1,1.319.11,1.562,1.562,0,0,1,.22.659l.769,13.957a3.226,3.226,0,0,1-1.319,2.528l-5.055,2.857a.9.9,0,0,1-1.319-.11,1.562,1.562,0,0,1-.22-.659l-.769-13.957A3.066,3.066,0,0,1,132.219,168.078Z" transform="translate(-39.358 -18.705)" opacity="0.1"/>
      <path id="Path_53" data-name="Path 53" d="M133.419,188.278l5.055-2.857c.769-.44,1.429-.22,1.539.44a2.715,2.715,0,0,1-1.319,2.088l-5.055,2.857c-.769.44-1.429.22-1.538-.44A2.462,2.462,0,0,1,133.419,188.278Z" transform="translate(-39.24 -16.706)" fill="#37474f"/>
      <path id="Path_54" data-name="Path 54" d="M146.919,140.575l5.055-2.857a1,1,0,0,1,1.319.11,1.562,1.562,0,0,1,.22.659l1.978,34.177a3.226,3.226,0,0,1-1.319,2.528l-5.055,2.857a.9.9,0,0,1-1.319-.11,1.562,1.562,0,0,1-.22-.659L145.6,143.1A2.814,2.814,0,0,1,146.919,140.575Z" transform="translate(-37.904 -21.423)" fill="#493dc1"/>
      <path id="Path_55" data-name="Path 55" d="M146.919,140.575l5.055-2.857a1,1,0,0,1,1.319.11,1.562,1.562,0,0,1,.22.659l1.978,34.177a3.226,3.226,0,0,1-1.319,2.528l-5.055,2.857a.9.9,0,0,1-1.319-.11,1.562,1.562,0,0,1-.22-.659L145.6,143.1A2.814,2.814,0,0,1,146.919,140.575Z" transform="translate(-37.904 -21.423)" opacity="0.2"/>
      <path id="Path_56" data-name="Path 56" d="M149.119,179.18l5.055-2.857c.769-.44,1.429-.33,1.539.44a2.715,2.715,0,0,1-1.319,2.088l-5.055,2.857c-.769.44-1.429.22-1.539-.44A2.462,2.462,0,0,1,149.119,179.18Z" transform="translate(-37.686 -17.609)" fill="#37474f"/>
      <path id="Path_57" data-name="Path 57" d="M163.42,145.175l5.055-2.857a1,1,0,0,1,1.319.11,1.562,1.562,0,0,1,.22.659l1.1,19.122a2.868,2.868,0,0,1-1.319,2.418l-5.055,2.857a1,1,0,0,1-1.319-.11,1.562,1.562,0,0,1-.22-.659l-1.1-19.122A2.651,2.651,0,0,1,163.42,145.175Z" transform="translate(-36.273 -20.968)" fill="#493dc1"/>
      <path id="Path_58" data-name="Path 58" d="M163.42,145.175l5.055-2.857a1,1,0,0,1,1.319.11,1.562,1.562,0,0,1,.22.659l1.1,19.122a2.868,2.868,0,0,1-1.319,2.418l-5.055,2.857a1,1,0,0,1-1.319-.11,1.562,1.562,0,0,1-.22-.659l-1.1-19.122A2.651,2.651,0,0,1,163.42,145.175Z" transform="translate(-36.273 -20.968)" opacity="0.2"/>
      <path id="Path_59" data-name="Path 59" d="M164.719,170.078l5.055-2.857c.769-.44,1.429-.22,1.539.44a2.715,2.715,0,0,1-1.319,2.088l-5.055,2.857c-.769.44-1.429.22-1.539-.44A2.714,2.714,0,0,1,164.719,170.078Z" transform="translate(-36.143 -18.507)" fill="#37474f"/>
    </g>
    <g id="freepik--character-2--inject-39" transform="translate(426.17 1044.817)">
      <path id="Path_60" data-name="Path 60" d="M277.1,190.755l8.572-5.055a36.065,36.065,0,0,0,1.648,3.956c.549,1.1,2.637,2.418,3.736,2.967,2.747,1.319,4.066,2.857,6.264,4.616,1.758,1.429,3.077,1.648,2.967,2.2a2.462,2.462,0,0,1-3.077,1.539,17.369,17.369,0,0,1-3.956-1.539,22.123,22.123,0,0,0,4.616,5.934c4.176,3.956,4.725,6.7-2.637,7.693-4.616.659-8.682-1.758-13.407-11.429A79.384,79.384,0,0,1,277.1,190.755Z" transform="translate(-146.252 -52.473)" fill="#cc9883"/>
      <path id="Path_61" data-name="Path 61" d="M266.277,112.8a64.063,64.063,0,0,1-3.517,7.912c-1.429,2.418-.22,40.441.44,43.628s14.616,34.4,14.616,34.4A11.5,11.5,0,0,0,288.7,195.33l-10.33-32.638L277.706,135C277.816,135,278.145,115,266.277,112.8Z" transform="translate(-147.737 -59.685)" fill="#40afff"/>
      <path id="Path_62" data-name="Path 62" d="M266.277,112.8a64.063,64.063,0,0,1-3.517,7.912c-1.429,2.418-.22,40.441.44,43.628s14.616,34.4,14.616,34.4A11.5,11.5,0,0,0,288.7,195.33l-10.33-32.638L277.706,135C277.816,135,278.145,115,266.277,112.8Z" transform="translate(-147.737 -59.685)" opacity="0.1"/>
      <rect id="Rectangle_9" data-name="Rectangle 9" width="10.33" height="17.583" transform="translate(74.912 254.99)" fill="#b16668"/>
      <path id="Path_63" data-name="Path 63" d="M264.5,302.072l10.33.44.549-18.682L264.5,283.5Z" transform="translate(-147.498 -42.797)" fill="#b16668"/>
      <path id="Path_64" data-name="Path 64" d="M227.849,182.288c0,9.89-.659,67.035-.659,67.035-.22,2.857-2.967,7.8-3.187,18.023-.33,14.726,1.978,49.562,1.978,49.562a13.426,13.426,0,0,0,11.429.22s8.132-49.232,9.89-63.848c1.648-12.748,7.143-46.815,7.143-46.815l7.912,43.078a58.61,58.61,0,0,0-1.319,16.374c.44,6.813,6.7,40.661,6.7,40.661a13.677,13.677,0,0,0,11.869.879s.659-53.189.769-59.343c.11-7.033-2.967-67.914-2.967-67.914Z" transform="translate(-151.508 -53.017)" fill="#37474f"/>
      <path id="Path_65" data-name="Path 65" d="M236.747,308.129V306.7c.549,0,.879.549,1.1,1.868a17.351,17.351,0,0,0,.659,2.857,49.459,49.459,0,0,0,1.758,5.275c1.429,3.626,2.637,4.945,6.044,9.121,1.1,1.209,2.2,2.418,3.187,3.736.659,1.1.879,4.176-.22,4.945-3.846,2.637-9.781,2.637-13.957,1.429a8.4,8.4,0,0,1-6.044-6.813c-.11-.989-.11-1.868-.22-2.857a12.107,12.107,0,0,0-2.637-5.934,16.393,16.393,0,0,1-1.978-3.3c-.879-2.088-.22-4.506.33-6.594.44-1.868.989-3.846,1.648-3.626v1.1a8.616,8.616,0,0,0,5.165,1.758C233.12,309.557,236.747,309.228,236.747,308.129Z" transform="translate(-151.504 -40.501)" fill="#263238"/>
      <path id="Path_66" data-name="Path 66" d="M275.207,297.97c.549,0,.989.769,2.2,2.088a23.662,23.662,0,0,0,6.044,4.4c3.846,1.978,11.319,4.945,14.726,6.374,2.088.989,1.978,3.517-.11,4.945s-7.473,2.528-13.847,1.1c-3.407-.769-8.022-3.956-10.77-3.846s-8.242.11-10.33-1.319-1.209-4.506-.659-7.253c.659-2.857,1.429-7.473,2.418-7.253v.989c1.209,1.868,7.583,2.637,10.33,1.209Z" transform="translate(-147.766 -41.442)" fill="#263238"/>
      <path id="Path_67" data-name="Path 67" d="M251.8,204.842a38.036,38.036,0,0,0,14.286-8.242s-2.747,5.165-10.989,10l3.956,38.353Z" transform="translate(-148.755 -51.394)" fill="#263238"/>
      <path id="Path_68" data-name="Path 68" d="M245.185,113.44c-3.517.879-10.55,1.978-12.2,9.011-1.868,8.352-2.528,26.594-2.528,26.594l-.659,40.661c7.033,5.165,33.188,8.022,48.024-2.967,0,0-1.868-48.793-1.868-56.376s-4.176-16.7-15.825-17.363Z" transform="translate(-150.932 -59.666)" fill="#f5f5f5"/>
      <path id="Path_69" data-name="Path 69" d="M257.3,112.389s5.275,4.176,6.594,10.33,1.648,74.728,1.648,74.728,7.253-1.319,10.66-4.066c0,0-.44-54.178-1.1-63.079-1.1-13.517-.989-17.473-17.8-18.9Z" transform="translate(-148.211 -59.824)" fill="#40afff"/>
      <path id="Path_70" data-name="Path 70" d="M242.506,111.4s9.671,5.934,9.781,29.671c.11,20.55.769,56.266.769,56.266s-16.045,2.308-26.265-3.736c0,0-1.209-49.782-.989-57.475.22-8.792,2.308-20.22,5.165-21.319A82,82,0,0,1,242.506,111.4Z" transform="translate(-151.33 -59.824)" fill="#40afff"/>
      <path id="Path_71" data-name="Path 71" d="M226.9,127.183c-4.506,7.693-14.4,23.3-14.4,23.3-.879-.659-21.539-13.627-26.265-19.451a35.13,35.13,0,0,0-3.517-6.264c-1.758-2.308-3.626-4.616-5.495-6.813-.11-.22-.33-.33-.44-.44-.659-.44-1.648.22-1.868.989a4.637,4.637,0,0,0,.33,2.418c.33.989,1.319,2.418-.11,2.637a6.985,6.985,0,0,1-3.626-.769,48.813,48.813,0,0,1-5.385-2.637,10.257,10.257,0,0,0-3.626-1.319,4.486,4.486,0,0,0-4.176,3.187,6.6,6.6,0,0,0,.659,5.385,15.028,15.028,0,0,0,3.736,4.176c3.187,2.528,7.473,3.627,11.429,4.725a19.261,19.261,0,0,1,5.495,2.528c3.077,2.2,19.341,15.935,27.034,21.649,7.033,5.165,9.011,3.187,13.077-.989s19.561-23.737,19.561-23.737Z" transform="translate(-158.032 -59.233)" fill="#cc9883"/>
      <path id="Path_72" data-name="Path 72" d="M238.324,113.6c-10.55,3.077-9.781,6.813-16.814,18.023s-11.649,16.264-11.649,16.264L187.443,133.82a20.475,20.475,0,0,0-7.143,9.231s22.528,17.473,25.605,19.451c4.506,2.747,6.7,3.846,10.44.769s18.462-19.341,18.462-19.341C241.511,136.9,242.94,118.655,238.324,113.6Z" transform="translate(-155.829 -59.606)" fill="#40afff"/>
      <path id="Path_73" data-name="Path 73" d="M238.324,113.6c-10.55,3.077-9.781,6.813-16.814,18.023s-11.649,16.264-11.649,16.264L187.443,133.82a20.475,20.475,0,0,0-7.143,9.231s22.528,17.473,25.605,19.451c4.506,2.747,6.7,3.846,10.44.769s18.462-19.341,18.462-19.341C241.511,136.9,242.94,118.655,238.324,113.6Z" transform="translate(-155.829 -59.606)" opacity="0.1"/>
      <path id="Path_74" data-name="Path 74" d="M240,123.2l4.4,5.495-2.2,6.264,5.824,15.055-7.033-15.055,2.528-5.824Z" transform="translate(-149.922 -58.656)" opacity="0.1"/>
      <path id="Path_75" data-name="Path 75" d="M268.718,121.6l-.989,5.714,3.846,5.055L266.3,149.183l4.066-16.7-3.517-4.616Z" transform="translate(-147.32 -58.815)" opacity="0.1"/>
      <circle id="Ellipse_1" data-name="Ellipse 1" cx="14.176" cy="14.176" r="14.176" transform="translate(90.839 20.048) rotate(-45)" fill="#263238"/>
      <path id="Path_76" data-name="Path 76" d="M236.7,91.8s2.308,10.77,3.187,12.528a5.4,5.4,0,0,0,2.857,2.308l-.22-7.583Z" transform="translate(-150.249 -61.763)" fill="#263238"/>
      <path id="Path_77" data-name="Path 77" d="M239.783,77.8a5.012,5.012,0,0,0-4.4,1.539c-1.868,1.978-.879,8.022,1.539,13.847l4.286.44Z" transform="translate(-150.475 -63.153)" fill="#263238"/>
      <path id="Path_78" data-name="Path 78" d="M242.7,94.338c-.879.549-2.088-1.1-3.187-2.308s-4.506-2.637-6.264.989,1.539,8.682,4.286,9.561c4.725,1.429,5.495-1.539,5.495-1.539l.33,17.583h0c3.3,4.176,10.66,9.121,14.616,8.462,3.187-.549,3.846-5.934.879-9.451V112.47a31.013,31.013,0,0,0,6.374.33c3.517-.549,5.6-3.3,6.7-7.033,1.648-6.044,2.308-10.989.879-22.858-1.539-13.077-16.7-13.187-24.946-8.022S242.7,94.338,242.7,94.338Z" transform="translate(-150.64 -63.751)" fill="#cc9883"/>
      <path id="Path_79" data-name="Path 79" d="M242.14,96.135c-.44,0-2.088-2.747-3.187-3.736-1.539-1.319.44-13.627.44-13.627a6.044,6.044,0,0,1,.989-6.594c2.088-2.2,4.945-5.055,14.176-3.956,6.594.769,13.847,2.857,19.671,0a9.978,9.978,0,0,1-3.407,10.55s-2.088,1.319-7.693,1.978a77.627,77.627,0,0,1-15.385-.33c-1.648-.22-1.978,1.319-2.857,5.6C244.228,89.761,243.568,96.135,242.14,96.135Z" transform="translate(-150.084 -64.12)" fill="#263238"/>
      <path id="Path_80" data-name="Path 80" d="M239.775,79.105,234.5,76.248a2.8,2.8,0,0,1,3.846-1.319.108.108,0,0,1,.11.11A2.931,2.931,0,0,1,239.775,79.105Z" transform="translate(-150.466 -63.464)" fill="#263238"/>
      <path id="Path_81" data-name="Path 81" d="M257.576,109.4s-7.8-1.539-10.44-2.967A9.4,9.4,0,0,1,243.4,102.7a12.5,12.5,0,0,0,2.088,4.4c1.978,2.528,12.088,4.4,12.088,4.4Z" transform="translate(-149.586 -60.685)" fill="#99634b"/>
      <path id="Path_82" data-name="Path 82" d="M254.878,90.648a1.542,1.542,0,0,1-3.077-.22A1.477,1.477,0,0,1,253.34,89a1.529,1.529,0,0,1,1.539,1.648Z" transform="translate(-148.756 -62.04)" fill="#263238"/>
      <path id="Path_83" data-name="Path 83" d="M253.419,85.293l-3.3,1.868a1.964,1.964,0,0,1,.769-2.637,1.731,1.731,0,0,1,2.528.769Z" transform="translate(-148.945 -62.509)" fill="#263238"/>
      <path id="Path_84" data-name="Path 84" d="M255.71,100.3l3.517,1.319a1.928,1.928,0,0,1-2.418,1.209h0A2.04,2.04,0,0,1,255.71,100.3Z" transform="translate(-148.379 -60.922)" fill="#99634b"/>
      <path id="Path_85" data-name="Path 85" d="M267.577,86.578,264.5,84.27a1.789,1.789,0,0,1,2.528-.44h.11A2.056,2.056,0,0,1,267.577,86.578Z" transform="translate(-147.498 -62.585)" fill="#263238"/>
      <path id="Path_86" data-name="Path 86" d="M266.687,90.248a1.594,1.594,0,1,1-3.187-.11,1.572,1.572,0,0,1,1.539-1.539,1.618,1.618,0,0,1,1.648,1.648Z" transform="translate(-147.597 -62.08)" fill="#263238"/>
      <path id="Path_87" data-name="Path 87" d="M259.2,88.8l.549,9.341,4.835-1.648Z" transform="translate(-148.023 -62.06)" fill="#99634b"/>
      <path id="Path_88" data-name="Path 88" d="M262.026,121.456c-.989,2.308-2.747,3.187-5.934,3.517A11.879,11.879,0,0,1,247.3,121.9l3.956-3.956,5.055,3.736.44-4.176Z" transform="translate(-149.2 -59.22)" fill="#40afff"/>
      <path id="Path_89" data-name="Path 89" d="M262.026,121.456c-.989,2.308-2.747,3.187-5.934,3.517A11.879,11.879,0,0,1,247.3,121.9l3.956-3.956,5.055,3.736.44-4.176Z" transform="translate(-149.2 -59.22)" opacity="0.1"/>
      <path id="Path_90" data-name="Path 90" d="M259.183,120a11.238,11.238,0,0,1,.549,4.286A6.671,6.671,0,0,1,258.3,127.8a3.743,3.743,0,0,1-3.407.33,9.363,9.363,0,0,1-3.3-7.143l4.4.44Z" transform="translate(-148.775 -58.973)" fill="#40afff"/>
      <path id="Path_91" data-name="Path 91" d="M258.1,127s5.165,28.572,5.385,30.77-2.967,10.44-4.945,10.55-5.824-7.363-5.934-9.451,2.088-31.54,2.088-31.54Z" transform="translate(-148.676 -58.281)" fill="#40afff"/>
      <path id="Path_92" data-name="Path 92" d="M254.5,127.43a3.445,3.445,0,0,0,3.407-.33l.11.44a4.065,4.065,0,0,1-3.517.769Z" transform="translate(-148.488 -58.271)" opacity="0.1"/>
      <path id="Path_93" data-name="Path 93" d="M257.2,122.7l-14.616-11.1-.11-3.3s-3.407,1.319-4.176,7.253a25.711,25.711,0,0,0,11.319,12.088l3.077-5.495Z" transform="translate(-150.091 -60.131)" fill="#e0e0e0"/>
      <path id="Path_94" data-name="Path 94" d="M256.369,109.7a7.646,7.646,0,0,1,4.725,2.857c1.429,2.418,1.1,11.539,1.1,11.539l-3.407-3.077-3.187,1.539c.33-3.077.879-8.682.879-8.682Z" transform="translate(-148.379 -59.992)" fill="#e0e0e0"/>
    </g>
    <g id="freepik--character-1--inject-39" transform="translate(583.531 1178.065)">
      <g id="freepik--Legs--inject-39" transform="translate(0 102.291)">
        <path id="Path_95" data-name="Path 95" d="M342.078,346.086c.549.769.659,2.528,1.319,4.945a11.216,11.216,0,0,1,.44,5.495,9.438,9.438,0,0,1-6.154,4.835,12.424,12.424,0,0,1-8.572-1.868c-3.736-2.308-5.275-3.956-13.847-4.616a21.152,21.152,0,0,1-12.088-4.945c-3.3-2.967-2.528-8.242,3.187-8.132,6.923,0,16.594,1.209,25.935,0Z" transform="translate(-301.226 -272.567)" fill="#263238"/>
        <path id="Path_96" data-name="Path 96" d="M372.478,336.186c.549.769.659,2.528,1.319,4.945a11.216,11.216,0,0,1,.44,5.495,9.438,9.438,0,0,1-6.154,4.835,12.424,12.424,0,0,1-8.572-1.868c-3.736-2.308-5.275-3.956-13.847-4.616a21.152,21.152,0,0,1-12.088-4.945c-3.3-2.967-2.528-8.242,3.187-8.132,6.923,0,16.594,1.209,25.935,0Z" transform="translate(-298.218 -273.546)" fill="#263238"/>
        <path id="Path_97" data-name="Path 97" d="M369.918,329.2v8.462s-1.209,2.857-6.044,2.967a7.256,7.256,0,0,1-6.374-3.077V329.2h12.418Z" transform="translate(-295.658 -273.813)" fill="#ffa8a7"/>
        <path id="Path_98" data-name="Path 98" d="M354.1,278.8c-.11,10.55,2.967,59.123,2.967,59.123s4.286,5.495,13.627,0l3.187-53.848Z" transform="translate(-295.995 -278.8)" fill="#37474f"/>
        <path id="Path_99" data-name="Path 99" d="M341.166,339.329l-1.648,8.462s-1.209,2.857-6.044,2.967a7.257,7.257,0,0,1-6.374-3.077l.659-9.781Z" transform="translate(-298.666 -272.953)" fill="#ffa8a7"/>
        <path id="Path_100" data-name="Path 100" d="M331.606,292c-.879,4.835-4.506,53.518-4.506,53.518s4.835,6.7,14.176,1.209l10-47.474Z" transform="translate(-298.666 -277.494)" fill="#37474f"/>
      </g>
      <path id="Path_101" data-name="Path 101" d="M355.252,309.277v67.255a1.754,1.754,0,0,1-.879,1.539l-2.418,1.429a1.687,1.687,0,0,1-1.758,0l-2.418-1.429a1.754,1.754,0,0,1-.879-1.539V309.277a3.072,3.072,0,0,1,3.077-3.077h2.308A3.126,3.126,0,0,1,355.252,309.277Z" transform="translate(-296.707 -173.798)" fill="#455a64"/>
      <path id="Path_102" data-name="Path 102" d="M348.988,306.2h0a2.087,2.087,0,0,1,2.088,2.088V378.95a.571.571,0,0,1-.879.549l-2.418-1.429a1.754,1.754,0,0,1-.879-1.539V308.288a2.087,2.087,0,0,1,2.088-2.088Z" transform="translate(-296.707 -173.798)" fill="#263238"/>
      <path id="Path_103" data-name="Path 103" d="M428.1,309.277v67.255a1.754,1.754,0,0,0,.879,1.539L431.4,379.5a2.427,2.427,0,0,0,1.758,0l2.418-1.429a1.754,1.754,0,0,0,.879-1.539V309.277a3.072,3.072,0,0,0-3.077-3.077h-2.308A3.05,3.05,0,0,0,428.1,309.277Z" transform="translate(-288.673 -173.798)" fill="#455a64"/>
      <path id="Path_104" data-name="Path 104" d="M433.988,306.2h0a2.087,2.087,0,0,0-2.088,2.088V378.95a.571.571,0,0,0,.879.549l2.418-1.429a1.754,1.754,0,0,0,.879-1.539V308.288A2.087,2.087,0,0,0,433.988,306.2Z" transform="translate(-288.297 -173.798)" fill="#263238"/>
      <path id="Path_105" data-name="Path 105" d="M395.852,330.689v69.233a1.754,1.754,0,0,1-.879,1.538l-2.418,1.429a1.687,1.687,0,0,1-1.758,0l-2.418-1.429a1.754,1.754,0,0,1-.879-1.538V330.689a.985.985,0,0,1,.989-.989h6.264A1.015,1.015,0,0,1,395.852,330.689Z" transform="translate(-292.69 -171.473)" fill="#455a64"/>
      <path id="Path_106" data-name="Path 106" d="M388.5,329.7h2.088a.985.985,0,0,1,.989.989V402.34a.571.571,0,0,1-.879.549l-2.418-1.429a1.754,1.754,0,0,1-.879-1.538V330.689a1.169,1.169,0,0,1,1.1-.989Z" transform="translate(-292.7 -171.473)" fill="#263238"/>
      <path id="Path_107" data-name="Path 107" d="M342,313.487v.989a6.108,6.108,0,0,0,2.2,4.4l49.672,28.462a4.631,4.631,0,0,0,4.616.22l50.112-28.9a5.2,5.2,0,0,0,2.418-4.176v-.989a4.525,4.525,0,0,0-2.528-3.846l-50.112-28.9a5.721,5.721,0,0,0-4.835.22l-49.123,28.353A5.2,5.2,0,0,0,342,313.487Z" transform="translate(-297.192 -176.36)" fill="#4f4a43"/>
      <g id="Group_15" data-name="Group 15" transform="translate(46.15 103.946)" opacity="0.4">
        <path id="Path_108" data-name="Path 108" d="M344.3,309.311l49.123-28.353a5.739,5.739,0,0,1,4.835-.22l50.112,28.9c1.429.659,1.429,1.758.11,2.528l-50,28.792a4.63,4.63,0,0,1-4.616-.22l-49.782-28.463a1.636,1.636,0,0,1-.659-2.2A1.955,1.955,0,0,1,344.3,309.311Z" transform="translate(-343.221 -280.306)" fill="#fff"/>
      </g>
      <g id="freepik--Character--inject-39" transform="translate(20.049)">
        <path id="Path_109" data-name="Path 109" d="M353.568,210.8,320.6,227.943l16.374,44.727,30.77-17.143Z" transform="translate(-319.358 -183.237)" fill="#8ea09d"/>
        <path id="Path_110" data-name="Path 110" d="M351.693,214.8,324,229.2l14.506,38.463,25.825-14.4Z" transform="translate(-319.021 -182.841)" fill="#f5f5f5"/>
        <path id="Path_111" data-name="Path 111" d="M345.219,218.653l-.549-1.319c-.33-.769-2.637-.33-5.165.989l-4.835,2.528c-2.528,1.319-4.4,2.967-4.066,3.736l.549,1.319Z" transform="translate(-318.372 -182.628)" opacity="0.15"/>
        <path id="Path_112" data-name="Path 112" d="M344.9,213.637c-.22-.44-1.209-.44-2.2.22l-1.868.989s-1.209-2.967-5.495-.879-3.407,5.495-3.407,5.495l-1.978,1.1c-1.1.659-1.868,1.539-1.758,1.978l.22.879,17.034-8.9Z" transform="translate(-318.607 -182.997)" fill="#37474f"/>
        <path id="Path_113" data-name="Path 113" d="M342.739,215.449c-1.539.769-2.2,1.1-1.758,2.308.549,1.319.989,2.308.989,2.308l-7.473,3.956s-.659-1.648-.879-2.308-.879-.989-1.978-.33l-.44-.44,11.869-6.044Z" transform="translate(-318.309 -182.831)" fill="#263238"/>
        <path id="Path_114" data-name="Path 114" d="M345.519,218.763l-.549-1.429c-.33-.769-2.637-.33-5.165.989l-4.835,2.528c-2.528,1.319-4.4,2.967-4.066,3.736l.549,1.429Z" transform="translate(-318.342 -182.628)" fill="#37474f"/>
        <path id="Path_115" data-name="Path 115" d="M435.1,292.254s-43.628-13.187-51.211-15.275-22.089-5.6-26.375-3.626-6.374,4.176-6.813,10.22c-.11,1.1,0,6.813,0,6.813s21.1,6.484,38.353,6.484S435.1,292.254,435.1,292.254Z" transform="translate(-316.384 -177.106)" fill="#263238"/>
        <path id="Path_116" data-name="Path 116" d="M394.03,223.059l-.33,15.935,15.275,5.055,2.2-21.649Z" transform="translate(-312.125 -182.089)" fill="#ffa8a7"/>
        <path id="Path_117" data-name="Path 117" d="M383.263,209.1s-3.407,5.934-2.857,6.374a14.1,14.1,0,0,0,3.407.879Z" transform="translate(-313.446 -183.405)" fill="#f28f8f"/>
        <path id="Path_118" data-name="Path 118" d="M391.178,191.731c-3.3,2.308-6.813,6.484-8.242,18.792-1.539,13.517,1.758,17.8,3.3,19.012,2.2,1.648,11.1,1.429,14.286-.11,3.956-1.868,11.759-6.813,15.055-14.286,3.846-8.792,3.517-19.671-2.747-23.188C404.036,187.006,394.035,189.753,391.178,191.731Z" transform="translate(-313.23 -185.378)" fill="#ffa8a7"/>
        <path id="Path_119" data-name="Path 119" d="M385.462,196.907a23.062,23.062,0,0,0,6.264,5.055c1.539,2.418-.879,9.121,2.418,10.66,0,0,1.539-5.055,5.824-4.176s4.616,6.374,1.758,9.561-5.385,1.868-5.385,1.868a9.99,9.99,0,0,0,3.846,8.9,12.469,12.469,0,0,0,11.429,1.319c2.857-1.1,7.8-5.165,10.44-10.55,5.715-11.429,7.033-20.77-.22-24.177-.549-5.385-2.857-7.583-7.583-8.9-10.22-2.857-18.572,3.517-27.144,1.648C382.715,187.237,382.934,193.83,385.462,196.907Z" transform="translate(-313.118 -185.719)" fill="#263238"/>
        <path id="Path_120" data-name="Path 120" d="M411.727,191.273,417,188.966a2.888,2.888,0,0,0-5.385,2.088C411.617,191.164,411.617,191.273,411.727,191.273Z" transform="translate(-310.371 -185.579)" fill="#263238"/>
        <path id="Path_121" data-name="Path 121" d="M435.613,286.158c0,8.352,1.1,17.473-2.418,23.627-3.407,5.934-18.242,18.352-36.045,15.385-11.649-1.978-49.342-16.264-49.342-16.264s-16.7-6.154-16.7-10.55c0-1.1-.11-2.2,0-3.3.33-5.824,2.747-12.088,14.946-11.759,13.3.33,52.859,6.813,52.859,6.813Z" transform="translate(-318.323 -176.065)" fill="#37474f"/>
        <path id="Path_122" data-name="Path 122" d="M429.214,238.57c-1.429-4.4-7.363-10.55-12.967-9.561a242.8,242.8,0,0,0-24.287,6.044h0s1.319,22.528-10.22,29.342l-.44,39.562s.879,2.857,5.275,5.6c4.725,3.077,13.957,4.4,25.605,1.209,15.6-4.286,18.462-13.187,18.462-13.187s-.11-26.484,0-38.683C430.752,248.021,430.2,241.647,429.214,238.57Z" transform="translate(-313.352 -181.446)" fill="#edcf72"/>
        <path id="Path_123" data-name="Path 123" d="M381.7,267.3s5.824-6.044,7.912-13.3c0,0,.33,10.879-7.912,16.594Z" transform="translate(-313.312 -178.963)" fill="#c4a95f"/>
        <path id="Path_124" data-name="Path 124" d="M394.886,234.6c-6.264,1.868-10.11,2.2-17.143,12.967s-22.748,30.77-24.177,33.408c-2.088,3.517-2.528,8.9-.659,12.2,1.648,3.077,5.714,1.209,12.638-4.835,6.7-5.824,20.77-21.979,20.77-21.979A114.339,114.339,0,0,0,394.886,234.6Z" transform="translate(-316.278 -180.882)" fill="#ffa8a7"/>
        <path id="Path_125" data-name="Path 125" d="M393.691,234.6a54.759,54.759,0,0,0-9.121,2.857,16.731,16.731,0,0,0-7.8,5.385c-5.6,7.583-12.967,20.33-12.967,20.33s1.319,9.89,13.517,13.407l6.044-7.253a36.387,36.387,0,0,0,6.484-9.671C392.592,253.612,395.669,244.051,393.691,234.6Z" transform="translate(-315.083 -180.882)" fill="#edcf72"/>
        <path id="Path_126" data-name="Path 126" d="M358.186,294.247c-5.824-.659-18.462-18.352-22.308-24.4a42.272,42.272,0,0,0-11.759-12.418c-6.154-4.506-5.275-11.539-2.637-18.023.989-2.2,4.066-.769,4.066-.769l1.1,3.077,1.978,5.275c1.319,1.209,2.088,1.648,2.088,1.209.11-.659-.989-3.517-.879-6.484,0-3.517,2.528-1.209,3.3,0a55.534,55.534,0,0,1,2.637,5.824c1.209,3.187.769,6.374,2.2,8.572s21.869,21.649,21.869,21.649Z" transform="translate(-319.469 -180.528)" fill="#ffa8a7"/>
      </g>
      <path id="Path_127" data-name="Path 127" d="M403,290.738v44.4a1.113,1.113,0,0,0,.44.769l1.209.659a1.2,1.2,0,0,0,.879,0l1.209-.659a1.112,1.112,0,0,0,.44-.769v-44.4a1.5,1.5,0,0,0-1.539-1.539h-1.209A1.481,1.481,0,0,0,403,290.738Z" transform="translate(-291.156 -175.48)" fill="#263238"/>
      <path id="Path_128" data-name="Path 128" d="M406,289.2h0a1.038,1.038,0,0,0-1.1,1.1v45.936c0,.33.22.44.44.22l1.209-.659a1.112,1.112,0,0,0,.44-.769V290.189A1.166,1.166,0,0,0,406,289.2Z" transform="translate(-290.968 -175.48)" fill="#455a64"/>
      <path id="Path_129" data-name="Path 129" d="M423.3,279.239v44.4a1.112,1.112,0,0,0,.44.769l1.209.659a1.2,1.2,0,0,0,.879,0l1.209-.659a1.112,1.112,0,0,0,.44-.769v-44.4a1.5,1.5,0,0,0-1.538-1.539h-1.209a1.481,1.481,0,0,0-1.429,1.539Z" transform="translate(-289.148 -176.618)" fill="#263238"/>
      <path id="Path_130" data-name="Path 130" d="M426.3,277.7h0a1.177,1.177,0,0,0-1.1,1.1v46.046c0,.33.22.44.44.22l1.209-.659a1.112,1.112,0,0,0,.44-.769V278.8A1.084,1.084,0,0,0,426.3,277.7Z" transform="translate(-288.96 -176.618)" fill="#455a64"/>
      <path id="Path_131" data-name="Path 131" d="M439.625,245.553a5.473,5.473,0,0,0-4.725-.11l-39.672,18.242a4,4,0,0,0-1.758,1.539l-.22.33c-.11.22-.22.33-.22.549a3.384,3.384,0,0,0-.33,1.429v29.342a5.108,5.108,0,0,0,2.2,4.066,5.82,5.82,0,0,0,4.506.22.384.384,0,0,0,.22-.11l1.978-.879,37.694-17.363a4.752,4.752,0,0,0,2.528-3.846V249.619A5.249,5.249,0,0,0,439.625,245.553Z" transform="translate(-292.175 -179.857)" fill="#4f4a43"/>
      <path id="Path_132" data-name="Path 132" d="M441.763,249.526a1.627,1.627,0,0,0-1.429-1.868,1.278,1.278,0,0,0-1.1.22L399.564,266.23a3.646,3.646,0,0,0-1.758,1.648l-4.506-2.637a5.087,5.087,0,0,1,1.758-1.648L434.73,245.24a5.885,5.885,0,0,1,4.725.11A5.45,5.45,0,0,1,441.763,249.526Z" transform="translate(-292.116 -179.873)" fill="#fff" opacity="0.4"/>
      <path id="Path_133" data-name="Path 133" d="M399.4,299.435a5.844,5.844,0,0,1-4.506-.22,4.953,4.953,0,0,1-2.2-4.066V265.808a3.042,3.042,0,0,1,.33-1.429c.11-.22.11-.33.22-.549l.22-.33,4.506,2.637a4.451,4.451,0,0,0-.769,2.308v29.342a1.52,1.52,0,0,0,1.319,1.758A2.144,2.144,0,0,0,399.4,299.435Z" transform="translate(-292.175 -178.023)" opacity="0.1"/>
    </g>
  </g>
</svg>
